<!DOCTYPE svg PUBLIC "-//W3C//DTD SVG 1.1//EN" "http://www.w3.org/Graphics/SVG/1.1/DTD/svg11.dtd">
<!-- Uploaded to: SVG Repo, www.svgrepo.com, Transformed by: SVG Repo Mixer Tools -->
<svg fill="#EC3030" height="123px" width="123px" version="1.1" id="Icons" xmlns="http://www.w3.org/2000/svg" xmlns:xlink="http://www.w3.org/1999/xlink" viewBox="0 0 32.00 32.00" xml:space="preserve" stroke="#EC3030" stroke-width="0.00032">
<g id="SVGRepo_bgCarrier" stroke-width="0"/>
<g id="SVGRepo_tracerCarrier" stroke-linecap="round" stroke-linejoin="round"/>
<g id="SVGRepo_iconCarrier"> <g> <path d="M18.3,13.2l1.5,1.5c0.2,0.2,0.5,0.3,0.7,0.3s0.5-0.1,0.7-0.3l1.5-1.5c0.4-0.4,0.4-1,0-1.4l-1.5-1.5c-0.4-0.4-1-0.4-1.4,0 l-1.5,1.5C17.9,12.2,17.9,12.8,18.3,13.2z M20.5,12.4L20.5,12.4v0.2V12.4L20.5,12.4z"/> <path d="M30,14.7c-0.2-0.5-0.7-0.8-1.2-0.7l-3.4,1c0.4-0.8,0.7-1.7,0.7-2.6c0-1.5-0.6-2.9-1.6-3.9c-1-1-2.4-1.6-3.9-1.6 c-0.5,0-1,0.1-1.5,0.2l1.9-3.8c0.2-0.5,0-1.1-0.4-1.3c-0.5-0.2-1.1,0-1.3,0.4l-8.5,17.1L2.7,22c-0.5,0.2-0.8,0.7-0.7,1.3 C2.2,23.7,2.6,24,3,24c0.1,0,0.2,0,0.3,0l6-1.9l-3.2,6.5c-0.2,0.5,0,1.1,0.4,1.3C6.7,30,6.8,30,7,30c0.4,0,0.7-0.2,0.9-0.6l4.1-8.2 L29.3,16C29.8,15.8,30.1,15.2,30,14.7z M23,10c0.7,0.7,1,1.5,1,2.5s-0.4,1.8-1,2.5c-1.3,1.3-3.6,1.3-5,0c-0.7-0.7-1-1.5-1-2.5 s0.4-1.8,1-2.5s1.5-1,2.5-1S22.3,9.4,23,10z M15.4,14.5c0.3,0.7,0.7,1.4,1.2,1.9c0.4,0.4,0.9,0.7,1.3,1l-4.7,1.5L15.4,14.5z"/> </g> </g>
</svg>